<svg id="Layer_1" enable-background="new 0 0 512 512" height="512" viewBox="0 0 512 512" width="512" xmlns="http://www.w3.org/2000/svg" xmlns:xlink="http://www.w3.org/1999/xlink"><linearGradient id="SVGID_1_" gradientUnits="userSpaceOnUse" x1="0" x2="512" y1="256" y2="256"><stop offset="0" stop-color="#80d8ff"/><stop offset="1" stop-color="#ea80fc"/></linearGradient><path d="m452 278c-9.512 0-18.508 2.235-26.507 6.191-17.414-16.183-54.724-42.582-113.285-43.19-4.375-.046-8.786.062-13.224.3l127.164-127.164c7.833 3.755 16.601 5.863 25.852 5.863 33.084 0 60-26.916 60-60s-26.916-60-60-60-60 26.916-60 60c0 9.251 2.108 18.019 5.864 25.852l-126.183 126.183c.202-3.396.316-6.739.319-10.016.056-59.961-27.392-98.025-44.119-115.653 3.913-7.964 6.119-16.911 6.119-26.366 0-33.084-26.916-60-60-60s-60 26.916-60 60 26.916 60 60 60c9.073 0 17.676-2.035 25.393-5.656 11.81 12.513 32.65 41.18 32.607 87.637-.016 17.798-3.884 38.383-11.483 61.217l-63.807 63.807c.139-2.556.242-5.104.287-7.639 1.096-61.781-26.481-100.906-43.185-118.865 3.955-7.997 6.188-16.991 6.188-26.501 0-33.084-26.916-60-60-60s-60 26.916-60 60 26.916 60 60 60c8.992 0 17.521-2.001 25.185-5.562 3.4 3.725 7.563 8.84 11.729 15.356 13.828 21.627 20.587 46.815 20.089 74.862-.333 18.742-3.864 38.423-10.491 58.548l-100.654 100.653c-7.811 7.811-7.811 20.475 0 28.285 3.905 3.905 9.023 5.858 14.142 5.858s10.237-1.953 14.142-5.857l100.652-100.653c21.078-6.94 41.66-10.472 61.225-10.49h.146c46.235 0 74.819 20.185 87.419 31.765-3.574 7.677-5.584 16.224-5.584 25.235 0 33.084 26.916 60 60 60s60-26.916 60-60-26.916-60-60-60c-9.512 0-18.508 2.235-26.506 6.191-17.613-16.37-55.584-43.191-115.329-43.191-.057 0-.127 0-.184 0-3.648.003-7.321.117-11.012.316l63.825-63.826c21.761-7.167 42.923-10.707 62.998-10.491 45.277.47 73.341 20.32 85.793 31.764-3.575 7.677-5.585 16.225-5.585 25.237 0 33.084 26.916 60 60 60s60-26.916 60-60-26.916-60-60-60zm-278-198c-11.028 0-20-8.972-20-20s8.972-20 20-20 20 8.972 20 20-8.972 20-20 20zm-134 94c0-11.028 8.972-20 20-20s20 8.972 20 20-8.972 20-20 20-20-8.972-20-20zm298 258c11.028 0 20 8.972 20 20s-8.972 20-20 20-20-8.972-20-20 8.972-20 20-20zm114-392c11.028 0 20 8.972 20 20s-8.972 20-20 20-20-8.972-20-20 8.972-20 20-20zm0 318c-11.028 0-20-8.972-20-20s8.972-20 20-20 20 8.972 20 20-8.972 20-20 20z" fill="url(#SVGID_1_)"/></svg>